<?xml version="1.0" encoding="UTF-8" standalone="no"?>
<!-- Created with Inkscape (http://www.inkscape.org/) -->

<svg
   version="1.1"
   id="svg1"
   width="4551.6274"
   height="1953.0399"
   viewBox="0 0 4551.6274 1953.0399"
   xmlns="http://www.w3.org/2000/svg"
   xmlns:svg="http://www.w3.org/2000/svg">
  <defs
     id="defs1" />
  <g
     id="g1"
     style="display:inline"
     transform="translate(-54.326118,-35.119907)">
    <path
       style="fill:#ffffff;fill-opacity:1;stroke:none;image-rendering:auto"
       d="m 3846,1684 c -19.3164,-16.3809 -30.1887,-46.594 -43.2678,-68 -28.9129,-47.3206 -57.5303,-94.96 -84.9397,-143.0393 -8.4402,-14.8052 -17.2791,-29.2776 -25.8389,-43.9646 -4.2217,-7.2434 -7.4524,-16.9751 -14.0864,-22.4976 C 3670.1021,1400.0343 3658.3401,1402 3649,1402 h -58 c -8.7266,0 -19.7373,-1.6791 -27.9561,1.8789 -7.3437,3.179 -6.5656,14.6818 -9.3525,21.1211 -4.9668,11.4761 -4.1416,23.8434 -5.9917,36 -2.2786,14.9727 -6.541,29.8389 -8.834,45 -3.5146,23.2388 -10.9897,46.0254 -15.5517,69 -10.6128,53.447 -19.2473,107.3035 -28.9297,161 -1.4236,7.8948 -5.2056,15.1704 -6.8665,23 -1.8088,8.5272 -1.1462,17.4375 -3.1721,26 -2.1335,9.0177 -6.012,16.5269 -6.3564,26 -0.4493,12.3573 -4.368,22.2434 -6.9739,34 -3.6577,16.5011 -6.2988,33.4166 -9.6157,50 -1.4915,7.4569 -5.9207,24.3282 2.6442,28.5664 5.9422,2.9403 14.6092,1.413 20.9561,0.8934 10.2896,-0.8421 20.6807,-0.4598 31,-0.4598 h 56 c 7.3162,0 17.3699,1.6964 23.6064,-3.0748 8.837,-6.7606 6.2964,-30.596 9.7269,-40.9252 4.0476,-12.1873 3.4289,-23.7124 6.1806,-36 4.6292,-20.6715 10.541,-41.2274 14.5508,-62 1.9065,-9.8768 1.4895,-20.1145 3.4021,-30 1.0759,-5.5608 4.1248,-10.3777 5.0972,-16 3.7414,-21.6349 10.4033,-44.1228 11.4746,-66 0.2539,-5.1841 2.113,-20.5461 8.1743,-22.2632 6.8804,-1.9488 9.6296,9.2216 12.011,13.2632 9.1723,15.5671 17.4748,33.3823 28.0222,48 12.9849,17.9956 22.6045,38.8477 33.8242,58 19.4028,33.121 39.9038,65.3989 58.5808,99 8.0764,14.5298 16.7195,28.9408 25.6621,43 4.562,7.1721 5.2515,12.5354 14.6868,14.4854 10.0493,2.0767 21.7573,0.5146 32,0.5146 16.9871,0 34.0977,1.1149 51,0.9954 6.7043,-0.047 22.5881,1.2326 27.6096,-3.429 7.9898,-7.4174 8.4849,-21.6103 9.6758,-31.5664 2.4478,-20.4639 6.645,-41.8657 10.9253,-62 12.8931,-60.6486 24.3916,-121.046 35.405,-182 5.1372,-28.4323 12.9458,-56.3165 16.6736,-85 1.2166,-9.36 5.3223,-17.8655 7.2576,-27 1.7573,-8.2954 0.9934,-16.7174 2.7392,-25 4.4866,-21.2861 10.3111,-42.5607 14.2886,-64 1.7009,-9.1676 8.7183,-33.8796 1.2007,-40.6821 C 4031.1917,1400.1702 4021.7361,1402 4016,1402 h -50 -43 c -5.6763,0 -13.1565,-1.3271 -17.9067,2.4336 -10.0284,7.9397 -9.1226,25.1694 -10.2637,36.5664 -1.5508,15.4885 -7.239,30.2933 -8.9963,46 -0.9471,8.4648 -4.6177,15.8525 -6.594,24 -1.9727,8.1332 -1.3738,16.7322 -2.6783,25 -1.0598,6.7174 -4.3256,12.4629 -5.7414,19 -5.418,25.0168 -7.5418,50.8804 -12.2874,76 -3.3696,17.8357 -9.1423,35.4063 -12.5322,53"
       id="path10" />
    <path
       style="fill:#ffffff;fill-opacity:1;stroke:none;image-rendering:auto"
       d="m 3319,1402.4646 c -12.8071,2.3345 -13.7119,26.458 -16.3457,37.5354 -6.012,25.2844 -7.9236,51.6625 -13.1043,77 -1.3493,6.5992 -4.9306,12.4661 -6.236,19 -1.6597,8.3076 -0.8887,16.7294 -2.7393,25 -6.6987,29.938 -11.7012,59.8044 -17.0386,90 -1.5666,8.8635 -5.7422,17.0967 -7.2114,26 -1.1985,7.2625 -0.6985,14.7841 -2.1326,22 -1.5004,7.5499 -5.3137,14.4703 -6.7243,22 -1.3465,7.1876 -0.6499,14.7623 -1.9317,22 -1.2924,7.2983 -4.6828,13.8606 -6.2468,21 -1.8694,8.5328 -1.3694,17.3921 -2.7283,26 -1.0088,6.3905 -4.384,11.7678 -5.7414,18 -1.9353,8.8864 -1.7822,18.0162 -2.9785,27 -0.8804,6.6111 -4.2183,12.5085 -5.6297,19 -2.9968,13.7831 -4.0017,27.2648 -7.5825,41 -1.9155,7.3474 -6.7861,18.736 -1.7707,25.8518 4.6831,6.6448 24.7727,3.1482 32.1418,3.1482 h 70 c 9.7002,0 22.5496,2.2388 31.9067,-0.3179 5.4666,-1.4936 6.0669,-8.0558 7.1079,-12.6821 2.597,-11.5417 5.9988,-22.1028 7.1551,-34 1.1775,-12.1161 6.2624,-23.092 8.3664,-35 6.1619,-34.8728 14.3802,-69.8812 18.75,-105 3.1258,-25.1196 10.9739,-50.2065 16.0479,-75 1.6819,-8.2183 0.907,-16.8054 2.6806,-25 1.5499,-7.1605 5.4053,-13.8615 6.6568,-21 4.9912,-28.47 10.7488,-56.6017 16.2329,-85 2.165,-11.2109 1.6096,-22.9666 4.585,-34 5.8466,-21.6802 11.571,-44.7637 15.0717,-67 1.0118,-6.4265 2.845,-19.4053 -1.2885,-24.8518 C 3443.2305,1398.5043 3423.6121,1402 3416,1402 h -64 c -10.6501,0 -22.5073,-1.4481 -33,0.4646"
       id="path9" />
    <path
       style="fill:#ffffff;fill-opacity:1;stroke:none;image-rendering:auto"
       d="m 2700,1655 h 1 c 3.5034,14.6166 13.5281,29.0618 19.2361,43 14.7856,36.1042 29.8926,72.0267 44.6699,108 5.8958,14.3523 11.8501,28.6439 17.6157,43 3.3289,8.2889 4.3565,17.4603 11.6626,23.6821 3.9495,3.3633 9.9895,2.3179 14.8157,2.3179 12.001,0 31.7139,3.8042 42.8303,-0.7384 6.7551,-2.7605 10.7637,-10.0044 15.2307,-15.2616 12.3223,-14.5018 23.6724,-30.6232 34.8272,-46 18.1982,-25.0861 38.4917,-48.678 56.3271,-74 19.303,-27.4055 39.0996,-57.1174 62.7847,-81 3.811,13.5629 -1.6526,22.9222 -4.334,36 -3.1289,15.2599 -4.7629,29.799 -8.7417,45 -2.2798,8.7102 -1.5637,18.145 -3.3743,27 -6.2656,30.6432 -11.2448,61.2988 -17.3579,92 -2.8049,14.0868 -5.3205,27.9292 -7.8071,42 -0.9766,5.5255 -4.4468,12.3611 -3.0632,17.9846 2.5178,10.2332 21.9582,6.0154 29.6782,6.0154 h 74 c 9.5442,0 21.5107,2.6276 27.095,-7.0393 6.5107,-11.2706 4.2292,-26.5679 6.7129,-38.9607 4.6115,-23.0093 11.404,-45.8115 15.5764,-69 1.3064,-7.2601 0.6736,-14.6881 2.0764,-22 1.3213,-6.8871 4.9866,-13.1539 6.2114,-20 9.8477,-55.0405 18.9881,-109.9994 29.4226,-165 5.0645,-26.6946 12.9846,-52.9368 16.1907,-80 1.2583,-10.6207 5.1423,-19.7351 7.0957,-30 1.8267,-9.5994 1.3276,-19.4519 3.5071,-29 2.3437,-10.2678 6.7812,-20.3403 7.0979,-31 0.2397,-8.0737 5.7202,-22.4465 -2.2,-28.2577 -4.9548,-3.6355 -14.946,-1.7423 -20.7861,-1.7423 -18.0007,0 -36.0217,-0.2438 -54,0.4058 -13.6606,0.4936 -30.7207,-3.7948 -42.8958,4.5881 -9.3381,6.4294 -16.4028,19.908 -22.9799,29.0061 -11.4485,15.8364 -23.8326,31.4326 -35.7539,46.9105 -34.357,44.6071 -73.1443,87.9352 -103.9314,135.0895 -13.9117,21.3074 -31.7935,40.0957 -46.3858,60.9607 -3.5393,5.0607 -12.5852,20.0298 -19.2192,20.4977 -6.6367,0.4679 -7.3484,-11.3126 -9.1829,-15.4584 -6.8213,-15.4154 -11.1653,-33.2825 -19.0901,-48 -7.1152,-13.2144 -10.6411,-28.0918 -16.0288,-42 -8.6982,-22.4546 -18.2148,-44.3535 -26.5354,-67 -7.2029,-19.6045 -19.2011,-38.6943 -24.4829,-59 -3.978,-15.2939 -11.7121,-29.3195 -17.1296,-44 -3.3301,-9.0239 -5.2725,-19.0706 -16.3843,-21.6057 -8.0256,-1.8311 -17.7856,-0.3943 -26,-0.3943 h -53 c -6.9036,0 -21.3743,-2.7317 -26.7214,2.3179 -4.9773,4.7002 -6.2659,17.1931 -8.3033,23.6821 -3.0363,9.6705 -2.8632,19.074 -4.4143,29 -1.2519,8.0128 -4.5693,15.1868 -6.2717,23 -1.9358,8.8849 -1.689,18.0842 -3.384,27 -1.1221,5.9012 -4.1883,11.0864 -5.2903,17 -4.575,24.5513 -6.968,49.6276 -12.2832,74 -1.7693,8.1132 -5.3892,15.7844 -6.8672,24 -3.9343,21.8708 -6.4448,44.1392 -10.9146,66 -5.8198,28.4631 -13.9111,56.9989 -16.7197,86 -2.3532,24.3011 -10.9619,49.2345 -16.3017,73 -2.3885,10.6295 -0.6436,21.5474 -4.5943,32 -3.9497,10.4501 -5.0832,19.8624 -5.8449,31 -0.2608,3.8131 -0.8706,9.603 2.3442,12.3966 3.8169,3.3167 12.8411,1.6034 17.5664,1.6034 h 47 42 c 6.1602,0 13.6238,0.8026 18.6096,-3.6489 6.8506,-6.1164 4.6926,-16.3413 5.6765,-24.3511 2.0862,-16.9829 7.0147,-34.0558 9.9639,-51 1.1514,-6.6147 4.3115,-12.5142 5.5764,-19 1.9302,-9.8981 1.655,-20.113 3.6375,-30 4.4267,-22.0781 10.3767,-43.8601 14.8711,-66 5.115,-25.1962 8.5454,-50.2773 15.665,-75"
       id="path8" />
    <path
       style="fill:#ffffff;fill-opacity:1;stroke:none;image-rendering:auto"
       d="m 4379,1392.4243 c -21.3447,2.8028 -43.8789,2.2388 -65,6.0403 -7.2944,1.3127 -13.9136,4.7974 -21,6.7499 -14.0342,3.8667 -28.4165,6.4483 -42,11.9151 -43.1694,17.3736 -82.6494,46.2832 -113.6758,80.9599 -29.5376,33.0128 -51.0488,76.6325 -62.2695,118.9105 -2.1751,8.1951 -1.7796,16.7169 -3.3657,25 -16.9605,88.5725 -0.5332,184.9758 76.5966,242.0355 85.1338,62.9809 213.8086,65.5182 309.7144,25.9459 15.3506,-6.3339 30.0776,-14.0564 44,-23.02 6.332,-4.0769 14.9399,-8.532 19.1567,-15.0016 5.9908,-9.1916 3.6836,-21.7699 6.0796,-31.9598 4.8628,-20.6791 10.3203,-41.2039 14.4497,-62 2.3184,-11.6759 1.2671,-23.6248 5.3682,-35 4.395,-12.1915 4.3604,-24.3441 6.2451,-37 1.3389,-8.9896 4.8892,-18.028 6.8164,-27 1.1348,-5.2821 3.8213,-18.3691 -0.4336,-22.4275 -5.0659,-4.8318 -19.1372,-2.8198 -25.6821,-2.5332 -22.9692,1.006 -45.9609,0.9607 -69,0.9607 -6.2974,0 -22.9409,-2.9878 -26.6821,3.1482 -2.0445,3.3535 -1.5572,8.1199 -2.6187,11.8518 -3.8872,13.6687 -6.1181,25.8195 -7.9883,40 -1.2505,9.4807 -5.3022,18.5906 -7.1972,28 -2.6162,12.9919 -3.9722,25.0541 -7.793,38 -1.9619,6.6471 -0.2402,14.9659 -3.8105,20.9607 -6.7852,11.3929 -23.648,10.2936 -34.9102,13.4675 -45.2485,12.7523 -101.9673,-0.8777 -134.9854,-34.4321 -29.9946,-30.4819 -32.6196,-74.3101 -25.479,-113.9961 2.9341,-16.3055 4.648,-31.4664 11.1665,-47 20.9732,-49.9789 64.6456,-81.6456 115.2979,-94.9243 16.7236,-4.3842 32.4561,-8.1876 50,-6.9862 29.877,2.046 64.2676,10.2352 88,29.1805 9.6499,7.7035 23.8071,31.002 38,22.7246 24.5991,-14.3462 46.5459,-37.0915 68.9106,-54.7507 6.2535,-4.9377 20.4942,-13.7317 21.0162,-22.2478 0.4506,-7.3538 -4.9185,-11.8909 -9.3511,-16.9961 -10.3609,-11.9332 -22.5635,-22.3638 -35.5757,-31.2161 -29.0371,-19.754 -63.1392,-35.045 -98,-41.3193 -10.3447,-1.8621 -21.4907,-1.3582 -32,-2.6196 -16.8818,-2.0266 -34.9878,-5.6543 -52,-3.4207"
       id="path6" />
    <path
       style="fill:#db5d21;fill-opacity:1;stroke:none;image-rendering:auto"
       d="m 3387,1125.4252 c -42.9526,5.8663 -76.8137,54.1477 -66.7646,96.5748 10.333,43.6257 49.2331,72.0405 93.7646,66.7145 56.4004,-6.7457 84.4824,-71.765 60.1611,-120.7145 -15.6264,-31.4498 -53.7097,-47.1436 -87.1611,-42.5748"
       id="path5" />
    <path
       style="fill:#db5d21;fill-opacity:1;stroke:none;image-rendering:auto"
       d="m 3275,932.42822 c -30.9023,4.42517 -59.8345,18.26892 -71.8564,49.57178 -18.752,48.8264 8.685,102.5776 58.8564,113.8882 7.5886,1.7107 15.1467,3.7895 23,2.8255 32.1519,-3.9466 60.9084,-18.9534 73.6128,-50.7137 C 3380.2844,993.82141 3336.1165,923.67639 3275,932.42822"
       id="path4" />
    <path
       style="fill:#db5d21;fill-opacity:1;stroke:none;image-rendering:auto"
       d="m 1243,917.42444 c -8.9714,1.18139 -19.374,-0.0289 -28,2.36108 -23.776,6.58753 -48.5475,24.97669 -63.6096,44.21448 -12.2837,15.68909 -16.0556,30.67944 -21.3001,49 -3.1756,11.0936 -6.6203,21.2896 -6.0501,33 0.3734,7.6688 4.3444,14.7048 6.3657,22 1.4549,5.2511 1.0449,10.8647 2.8379,16 10.2992,29.4979 33.7879,58.042 62.7562,70.6335 33.9886,14.7737 72.2974,10.3665 109,10.3665 h 192 686 200 c 26.8137,0 57.7874,4.9814 84,-1.4182 12.1414,-2.9642 27.2539,-11.0911 37.9607,-17.652 49.5144,-30.3417 65.0559,-93.7411 47.7893,-145.9298 -1.625,-4.91138 -1.6243,-10.35388 -4.0247,-15 -6.5664,-12.70984 -16.5058,-22.75916 -26.4399,-32.83411 C 2508.312,937.99426 2488.4939,922.0896 2468,919.20911 2441.428,915.47424 2413.801,917 2387,917 H 2258 1856 L 1425.4244,917.15125 1304,917 c -19.9132,0 -41.2596,-2.17505 -61,0.42444"
       id="path3" />
    <path
       style="fill:#ffffff;fill-opacity:1;stroke:none;image-rendering:auto"
       d="m 2060,1330 c -11.45,-6.0018 -28.3547,-3 -41,-3 h -91 -158 -41 c -5.0582,0 -12.5033,-1.3425 -16.8673,1.7423 -6.6504,4.7011 -10.2936,16.4257 -14.4467,23.2577 -12.2369,20.1304 -23.3985,40.5115 -35.0456,61 -30.6642,53.9414 -62.7024,107.082 -93.6867,161 -20.6829,35.9919 -37.3332,74.9528 -74.9537,96.7793 -27.2001,15.7809 -60.4204,13.374 -91,12.6759 -33.5303,-0.7654 -67.4083,0.5448 -101,0.5448 -121.759,0 -243.2764,-1 -365,-1 H 823 c -18.51019,0 -41.10669,2.9597 -59,-2.1705 -47.27917,-13.5557 -65.53113,-53.4582 -88.98999,-91.8295 -39.96478,-65.3699 -77.31134,-132.4756 -115.36877,-199 -31.04462,-54.2659 -64.34034,-107.3 -94.57102,-162 -15.67642,-28.3652 -30.98199,-57.3129 -47.90897,-85 -12.4074,-20.2946 -23.60409,-41.3647 -35.57098,-61.9105 -11.36389,-19.5104 -22.20206,-38.8718 -24.4205,-62.0895 -2.7605,-28.8905 11.00641,-54.17969 24.74533,-78 17.65613,-30.61182 35.06696,-61.40991 52.72226,-92 68.02164,-117.85608 134.69955,-236.92969 204.38272,-354 18.10321,-30.41406 35.70288,-61.23718 53.25232,-92 11.31049,-19.82642 21.01367,-42.28601 41.76697,-54.35498 C 754.97662,336.46899 775.37341,339 799,339 h 108 422 108 c 28.1669,0 51.2545,-2.21497 73.9993,17.27161 13.662,11.70495 21.6297,28.27099 30.1851,43.72839 11.5563,20.87903 24.1067,41.05505 35.7199,62 36.0115,64.94836 73.2561,129.94263 112.2539,193 9.1594,14.8103 18.4901,30.56714 26.5679,46 4.2153,8.05359 8.4359,20.57861 15.3819,26.60645 C 1737.4452,733.10596 1746.2366,732 1754,732 h 49 198 c 19.8519,0 41.3979,3.14905 61,0.57556 5.3799,-0.7063 19.9578,1.70862 18.0872,-7.57629 -1.6333,-8.10694 -9.7415,-18.01258 -14.1226,-24.99927 -9.4932,-15.1394 -18.6433,-31.24792 -27.2153,-47 -31.0479,-57.05432 -64.0127,-113.47913 -97.7586,-169 -36.9609,-60.81055 -71.639,-123.9209 -106.9305,-186 C 1798.3057,235.10645 1762.4663,175.71228 1705.9113,128.38574 1655.8108,86.460571 1594.0214,58.699585 1531,45.331055 c -8.7773,-1.861939 -17.0554,-5.752808 -26,-7.030884 -12.0194,-1.717407 -24.8613,-0.807861 -37,-1.339478 C 1424.7861,35.068237 1381.3058,36 1338,36 H 1054 862 c -43.85083,0 -89.46527,-3.041748 -133,2.184448 -8.9032,1.068848 -17.2821,5.286621 -26,7.146607 C 659.92303,54.521484 617.98773,69.778198 580,92.98999 527.67572,124.96191 482.61115,167.44287 447.6875,218 429.71616,244.01624 417.14792,273.39771 400.27701,300 352.67578,375.05823 312.35126,454.5769 266.93982,530.96069 221.53113,607.33984 178.1432,684.84705 133.91127,762 c -21.50253,37.50647 -45.830688,74.52429 -59.111885,116 -27.305054,85.27063 -27.290325,180.7583 0,266 13.238007,41.3491 37.204715,78.4185 58.668225,116 26.51437,46.4254 54.20793,92.2659 80.12036,139 54.49702,98.2878 112.39039,194.6394 168.45833,292 26.78585,46.5129 51.20986,95.0282 83.73767,137.9607 29.57617,39.0366 70.37887,74.0229 112.21603,99.0602 38.71893,23.171 80.27869,38.9966 124,48.2654 7.88495,1.6716 14.87079,5.1214 23,6.2855 49.1911,7.044 99.38831,5.4282 149,5.4282 h 170 303 c 79.3436,0 159.6364,2.7258 235,-23.6844 72.2994,-25.3365 138.1436,-74.3615 186.6257,-134.3156 26.0644,-32.2317 45.5257,-70.0872 65.4453,-106 31.8398,-57.4033 64.8381,-114.7837 98.5379,-170.9854 27.3236,-45.5679 52.9332,-92.1623 79.6118,-138.0146 15.9522,-27.4169 36.4978,-55.1837 47.7793,-85"
       id="path1" />
    <circle
       style="fill:#db5d21;fill-opacity:1"
       id="path2"
       cx="3593.6746"
       cy="1087.7682"
       r="79.346489" />
    <circle
       style="fill:#db5d21;fill-opacity:1"
       id="path2-6"
       cx="3472.8828"
       cy="893.37354"
       r="79.346489" />
    <path
       id="path7"
       style="display:inline;fill:#ffffff;fill-opacity:1;stroke:none;image-rendering:auto"
       d="M 2328.4316,1401.0859 C 2322.0233,1401.1653 2315.4065,1402 2311,1402 h -67 c -9.8594,0 -22.4937,-2.0937 -32,0.6387 -13.1433,3.7776 -18.5745,18.6373 -24.9785,29.3613 -14.49,24.2646 -30.2093,47.6827 -44.9199,71.8301 -61.0026,100.1346 -124.2693,198.6579 -186.0938,298.1699 -18.2572,29.3866 -36.1808,59.3547 -55.5976,88 -4.0307,5.9465 -19.5714,24.568 -13.668,31.5664 5.6849,6.7393 26.3526,2.4463 34.2578,2.4336 25.6665,-0.041 51.3335,0 77,0 9.9541,0 24.8148,2.7106 33.7891,-2.418 7.113,-4.065 11.5195,-18.5802 15.3945,-25.582 7.5395,-13.6234 16.7688,-26.3194 23.9121,-40.0391 5.0264,-9.6537 10.0926,-22.6943 18.9434,-29.5312 C 2101.1683,1817.8328 2128.5002,1823 2142,1823 h 109 c 14.8625,0 35.9013,-3.8118 49.9961,1.1484 9.1355,3.2148 11.2486,18.529 11.918,26.8516 1.1401,14.1741 6.0761,26.1937 8.332,40 1.3318,8.1512 -0.1624,17.5642 4.1211,24.9961 6.3596,11.0342 20.8374,8.0039 31.6328,8.0039 h 72 c 9.8235,0.016 23.6579,2.7584 32.9941,-0.8945 2.7342,-1.0697 4.8533,-3.0678 5.0723,-6.1094 0.6567,-9.1153 -3.1899,-27.4197 -6.5312,-35.9961 -8.2876,-21.2726 -10.94,-44.7681 -16.0352,-67 -4.7124,-20.5613 -12.7594,-41.2451 -16.0605,-62 -5.907,-37.1367 -16.7759,-73.4601 -25.9258,-110 -12.5083,-49.952 -20.5609,-100.7004 -35.0742,-150 -1.9224,-6.5303 -1.5472,-13.4009 -2.9571,-20 -1.6118,-7.5447 -5.6358,-14.4025 -7.0176,-22 -1.7317,-9.5212 -1.8039,-18.9608 -5.6875,-28 -2.3325,-5.4287 -2.4032,-13.2654 -7.1679,-17.2969 -3.5697,-3.0202 -9.7694,-3.6965 -16.1778,-3.6172 z m -79.3203,141.4825 40.3946,175.6445 -140.6582,-0.8496 z" />
  </g>
</svg>
